<svg xmlns="http://www.w3.org/2000/svg" paint-order="stroke" viewBox="0-10 450 190" width="900" height="380"><defs><path stroke-linejoin="round" stroke-linecap="round" id="prefix__a" d="M54.9 80.7l-.7-17.4c0-1.2-1.1-2.3-2.4-2.3h-.2l-24.3 1.3-.5-9.3h16.6c1.4 0 2.4-1.1 2.5-2.5l.2-15.3V35c0-1.3-1.2-2.3-2.4-2.3H25.8l-.5-8.6 23.3-1.2c1.2-.1 2.3-1.2 2.3-2.4v-.2l-.8-17.4C50 1.7 48.9.6 47.7.6h-.2L20.9 2h-.4L2.3 3C1.1 3 0 4.1 0 5.3v.2l4.1 78c.1 1.2 1.1 2.3 2.3 2.3h.2l19.5-1c.1 0 .3-.1.4-.1l26-1.4c1.4-.1 2.4-1.3 2.4-2.6z"/><path stroke-linejoin="round" stroke-linecap="round" id="prefix__b" d="M81.7 27.3l-11.2-.6h-.2c-1 0-1.9.9-2 2l-2.7 52c0 1.2.8 2.1 2 2.2l20 1h.2c1 0 1.9-.9 1.9-1.9l1.9-36.3c7.3.4 12.4 4.8 12.4 15.3v3.4c0 17.8 16 23.1 17.8 23.1.9 0 1.9-.3 2.9-1.1 0 0 9.9-7.1 9.9-7.3.7-.5 1-1.1 1-1.7 0-1.1-1-2.1-1.6-2.6-4.1-3.8-5.4-8.3-5.4-13.9v-3.3c0-19.1-15.4-31.5-35.7-31.5-3.6 0-7.3.4-11.2 1.2z"/><path stroke-linejoin="round" stroke-linecap="round" id="prefix__c" d="M171.8 49.6l6.6.3h.2c1.1 0 1.9-.9 2-1.9l1.2-16.6c0-1.2-.9-2.2-2-2.2l-6.9-.4c.3-4.2.6-8.6.8-12.8 0-1.7-.8-2.7-2.5-2.8l-18.9-.9h-.4c-2.6 0-2.8 1.9-2.9 3.1-.3 4.3-.5 8.4-.7 12.2l-6.4-.4c-1.2 0-2.1.9-2.2 2l-1.2 16.6c0 1.1.9 2.1 2 2.2l7.5.4c.5 25.3 6.1 34.1 22.2 37.3.3.1.6.1.9.1 1.5 0 2.4-1 3.2-2.9l5.2-12.6c.1-.3.2-.6.2-.8 0-1.1-1.2-1.5-2.3-2-4.4-1.9-5.6-8.8-5.6-17.9z"/><path stroke-linejoin="round" stroke-linecap="round" id="prefix__d" d="M219 82.3v-.2l-1.9-35.4c1.6-.4 3-.6 4.4-.6 1.7 0 3.4.3 5 .8.4.1.8.2 1.1.2 1.2 0 2.2-.7 2.5-2.1l2.9-14.1c.1-.5.2-.9.2-1.3 0-1.2-.6-2-2.1-2.4-3.1-.7-6.4-1.1-9.8-1.1-5 0-10.2.8-15.6 2.5l-11.6.6c-1.1 0-2 1-2 2.2l2.8 52c0 1.2 1 2 2.2 2l19.9-1.1c1.1 0 2-.9 2-2z"/><path stroke-linejoin="round" stroke-linecap="round" id="prefix__e" d="M307.9 37.8L293 30.1c-1-.6-1.9-.8-2.5-.8-1.1 0-1.8.6-2.4 1.6-4.9 7.7-10.6 16.6-16.5 25.5l-11.9-26.9c-.7-1.7-2-3-3.8-3-.4 0-.8.1-1.2.2l-15.9 4.7c-1.5.4-2.7 1.3-2.7 2.7 0 .5.2 1.1.5 1.8l18.7 42.3c.3.6.5 1.1.8 1.4l-15.7 23.3c-.5.7-.8 1.4-.8 2.1 0 1 .7 1.8 2.2 2.4l14.5 5.6c.7.3 1.3.4 1.8.4 1.2 0 2.1-.6 3.1-1.7C302.1 62 309.7 41.5 309.7 40c0-.9-.6-1.6-1.8-2.2z"/><path stroke-linejoin="round" stroke-linecap="round" id="prefix__f" d="M343.9 73.8c0-6.9-5.6-12.6-12.5-12.6-7 0-12.6 5.7-12.6 12.6 0 6.9 5.6 12.5 12.6 12.5 6.9 0 12.5-5.6 12.5-12.5z"/><path stroke-linejoin="round" stroke-linecap="round" id="prefix__g" d="M343 94.8h-.4c-1.1 0-2.5.8-2.9 2.2l-2.8 9.4c-.1.2-.1.5-.1.8 0 .9.3 2.1 1.4 2.6 4.1 1.8 9.2 2.9 14.4 2.9 11.8 0 24.4-5.7 27.9-22.2 3-14.6 4.6-54.4 4.6-55.1 0-1.4-.9-2.5-2.5-2.7-2.2-.1-19.1-.8-19.2-.8-1.2 0-2.4.4-2.5 2.7-.2 17.9-1.5 43.6-3.7 52.8-1.2 4.8-6.2 7.5-12.2 7.5-.6 0-1.3 0-2-.1zm45.2-80c0-8.2-6.6-14.8-14.7-14.8-8.2 0-14.8 6.6-14.8 14.8 0 8.1 6.6 14.7 14.8 14.7 8.1 0 14.7-6.6 14.7-14.7z"/><path stroke-linejoin="round" stroke-linecap="round" id="prefix__h" d="M433.2 43.1h.4c1.3 0 2.4-.4 2.4-1.5 0-.3 0-.6-.2-1L431.3 29c-.7-1.8-1.7-2.2-5.6-2.2-13.1 0-29.4 6-29.4 17.3 0 3.8 1.8 8.1 6.2 13.1l2.7 3c1.4 1.8 2.7 3.4 2.7 4.7 0 2.4-2.8 5.2-8.7 5.3-1.2 0-3.2.2-3.2 1.7 0 .2.1.5.2.8l4.4 11.6c.6 1.7 1.6 2.1 3.8 2.1h1.1c13.4 0 31.3-6.4 31.3-18.2 0-3.8-2-8.3-6.6-13.3-3.8-4.2-5.3-6.1-5.3-7.8 0-2 2.3-4 8.3-4z"/><path stroke-linejoin="round" stroke-linecap="round" id="prefix__j" d="M75 79.401v-.2l-1-15.5c-.1-1.1-1.5-2-2.5-2h-.2l-24.6 1.1v-29.6l17 .3h.2c1 0 1.9-.9 1.9-1.9l.2-15.6c0-1.1-.8-2-1.9-2l-56.3-1.1c-1.2 0-2.1.8-2.1 2l-.3 15.5c0 1.1.9 2.1 2 2.1l17 .3v31.1l-23 1.1c-1.1 0-1.4 1-1.4 2.1l1.1 15.5c.1 1.1 1 2 2.1 2l69.9-3.3c1-.1 1.9-.9 1.9-1.9z"/><path stroke-linejoin="round" stroke-linecap="round" id="prefix__k" d="M106.1 68.701l9.9 17.7c.4.7 1.1 1.1 1.8 1.1.3 0 .6-.1.9-.2 19.9-5.8 39.1-15.8 57.1-30 .6-.5 1-1.2 1-1.9 0-.2 0-.5-.2-.8l-8.7-15.6c-.4-.7-1.1-1.1-1.8-1.1-.2 0-.5.1-.8.2-12.5 7.8-42.6 21.8-58.3 27.9-.7.4-1.1 1.1-1.1 1.8 0 .3.1.6.2.9zm4.4-57l-13.4 8.9c-.5.3-.7.7-.7 1.2 0 1.7 2 3.8 17 19.1.7.7 1.2 1.2 1.9 1.2.6 0 1.3-.3 2.4-1.1l15.7-11.1c.8-.6 1.1-1.2 1.1-2 0-5.2-18.2-17.4-21.1-17.4-1 0-2 .5-2.9 1.2z"/><path stroke-linejoin="round" stroke-linecap="round" id="prefix__l" d="M238.3 87.201v-39.7c6.6 3.2 16.9 8.7 21.9 11.8.5.3 1.2.6 1.9.6s1.4-.3 1.9-1.1c10.9-17.8 11.3-18.4 11.3-19.3 0-.8-.5-1.5-1.6-2.1-8.7-4.7-24.6-8.7-27.6-8.7-1 0-1.9.3-2.6 1.3l-5.2 7.2v-34.3c0-1.1-.8-2-1.9-2h-19.7c-1.1 0-2 .9-2 2v84.3c0 1.1.9 1.9 2 1.9h19.7c1.1 0 1.9-.8 1.9-1.9z"/><path stroke-linejoin="round" stroke-linecap="round" id="prefix__m" d="M363.2 4.001l-17.6-.2c-1.9 0-2.9 1.3-2.9 3v.3c.2 4 .4 8.3.4 12.7 0 19.8-3.1 42.7-15.6 58-.6.8-1.2 1.7-1.2 2.5 0 .6.3 1.2 1.1 1.5l11.9 5.1c1.4.6 2.5 1.1 3.5 1.1.8 0 1.6-.4 2.3-1.1 17.1-17.6 23-40.1 23-62.6 0-5.6-.3-11.2-1-16.7-.2-1.5-.4-3.6-3.9-3.6zm-39.5 3l-18.4.1c-2.5 0-3.1.7-3.1 2.2 0 .3.1.7.1 1.1.7 8.1 1.4 24.2 1.4 31.6 0 2.4 1 3.3 2.6 3.4l14.9.8h.3c1.6 0 3.1-.7 3.6-2.8 1.2-4.9 2.3-16 2.3-24.8 0-10.9-1-11.6-3.7-11.6z"/><path stroke-linejoin="round" stroke-linecap="round" id="prefix__n" d="M408.3 71.201l9.5 16.8c.4.7 1.1 1.1 1.8 1.1.3 0 .6-.1.9-.2 19.9-5.8 40.1-16.3 58-30.5.7-.5 1.1-1.2 1.1-1.9 0-.3-.1-.5-.2-.8l-8.3-14.7c-.4-.7-1.1-1.1-1.8-1.1-.3 0-.6.1-.9.2-12.4 7.8-43.5 22.3-59.2 28.4-.7.4-1.2 1-1.2 1.8 0 .3.1.6.3.9zm-.4-44.1l-14 5.9c-.6.2-.8.7-.8 1.3 0 1.1.7 2.7 11.7 19.4.6.8.9 1.4 1.8 1.4.5 0 1.1-.2 2-.6l16.5-7.3c1-.5 1.4-1.2 1.4-2 0-4.4-10.6-14.8-14.3-17.9-.7-.5-1.4-.7-2.1-.7-.7 0-1.5.2-2.2.5zm19.5-20.5l-11.4 9.3c-.4.3-.5.7-.5 1.1 0 1.3 1.1 2.8 16.7 15.9.6.5 1.1.9 1.7.9.5 0 1.1-.3 2.1-1.2l13.4-11.5c.6-.5.9-1.1.9-1.6 0-4.5-17.9-14.2-20.1-14.2-1 0-1.9.6-2.8 1.3zm55.6-.2l-.3-.2-5.8-5.3c-.7-.5-1.4-.9-2.2-.9-.5 0-1 .1-1.5.5l-5.1 3.9c-.4.3-1.1.8-1.1 1.5 0 .4.2.9.7 1.4l6.4 6.9c.5.5 1.1.9 1.8.9.4 0 .9-.2 1.4-.6l5.5-4.8c.6-.6 1-1.2 1-1.8 0-.5-.2-1-.8-1.5zm-16.6 4.1l-1.7-7.5c-.3-1.2-1.3-2.4-2.7-2.4h-.3l-7.3.9c-1.1.2-1.9.6-1.9 1.8 0 .4.1.7.2 1.2l2.1 7.7c.3 1 1 1.5 2.4 1.5h.7l6.2-.4c1.7-.2 2.4-.8 2.4-1.9 0-.3 0-.6-.1-.9z"/><path stroke-linejoin="round" stroke-linecap="round" stroke-width="35" id="prefix__o" d="M557.2 81.501l-.9-11.6c0-1.2-1.5-2-2.5-2l-17.9.9v-21.2l12.2.2h.2c1 0 1.9-.9 1.9-1.9l.2-11.7c0-1.1-.8-2-2-2.1l-42.2-.7c-1.1 0-2 .8-2.1 1.9l-.1 11.7v.2c0 1 .9 1.8 1.9 1.9l12.3.2v22.3l-16.8.8c-1.3.1-1.5 1.2-1.5 2.1l.8 11.7c.1 1 .9 1.9 1.9 1.9h.2l52.4-2.5c1.1 0 2-.9 2-2.1z"/><path stroke-linejoin="round" stroke-linecap="round" stroke-width="35" id="prefix__p" d="M641.3 87.401v-44c0-1.1-.8-2-1.9-2h-13.2c13.5-5.3 26.6-11.4 34.5-16 .8-.5 1.3-1.5 1.3-2.4 0-.3-.1-.6-.2-.8l-10.5-17.7c-.4-.7-1.6-1.2-2.6-1.2-.3 0-.6.1-.9.2-16.3 8-44.3 22.3-64.4 30.1-.7.3-1.2 1-1.2 1.8 0 .3.1.5.2.8l5.9 15c.3.9 1.1 1.3 2 1.3 1.2 0 12.1-2.3 27-7.7v42.6c0 1.1.9 1.9 2 1.9h20.1c1.1 0 1.9-.8 1.9-1.9z"/><path stroke-linejoin="round" stroke-linecap="round" stroke-width="35" id="prefix__q" d="M835.2 12.601l-39.9-3.1h-.2c-1.1 0-2 .8-2.1 1.9l-1.5 16.5v.2c0 1.1.8 2 1.9 2.1l21.2 1.8c1.5.1 2.2.7 2.2 1.9 0 5-15 29.5-35.4 39.6-1.4.6-2 1.3-2 2.1 0 .5.3 1 .7 1.5l8.6 10.4c.9 1.1 1.8 1.5 2.7 1.5.9 0 1.7-.3 2.6-.6 26.7-9.2 49.5-38.8 51.8-63.6 0-.4.1-.7.1-1.1 0-6.7-6.2-10.7-10.7-11.1zm2.1 46.5l-8.2 12c-.4.5-.6 1-.6 1.4 0 .8.7 1.3 1.5 1.8 5 3 16.5 10.1 21.9 13.6.5.3 1.2.6 1.8.6.7 0 1.3-.3 1.8-1.1 2.6-4.3 8-12.8 10.4-16.9.4-.7.7-1.3.7-1.9 0-.8-.5-1.5-1.5-2.1-12.3-7.2-24.5-8.7-25.3-8.7-.9 0-1.8.3-2.5 1.3z"/><path stroke-linejoin="round" stroke-linecap="round" stroke-width="20" id="prefix__r" d="M15 15L30 5l10 35z"/><path stroke-linejoin="round" stroke-linecap="round" stroke-width="20" id="prefix__s" d="M35 5h15l-6 30z"/><path stroke-linejoin="round" stroke-linecap="round" id="prefix__t" d="M0 0l6 6 6-6a14 14 0 010 28l-6 6-6-6z"/><path stroke-linejoin="round" id="prefix__i" transform="scale(.005 -.005)" stroke-width="6000" d="M1158 6421c-82-38-256-198-468-430-52-58-120-131-150-165-30-33-85-89-122-125-40-39-76-85-88-114l-21-48V3446l-1-2093 22-46c12-26 25-47 29-47 5 0 13-10 19-22 22-48 175-210 489-519 81-81 166-166 188-189 22-24 58-51 81-62 40-17 125-18 2069-18 2001 0 2029 0 2069 20 80 38 286 235 516 491 46 52 127 138 180 192 109 113 105 107 125 184 27 108 32 261 18 563-12 278-8 556 11 633 22 94 31 108 147 227 56 58 212 219 348 358 220 227 265 282 271 327 3 28-59 102-226 272-378 381-427 436-489 539-19 31-42 82-51 113-19 62-20 78-12 769 5 442 11 408-99 551-79 102-674 700-724 727-33 18-104 19-2066 20-1809 1-2036-1-2065-15z"/><g id="prefix__u"><use href="#prefix__a" fill="#25a965" transform="translate(25 45)"/><use href="#prefix__b" fill="#2ed37e" transform="rotate(5 -500.335 366.056)"/><use href="#prefix__c" fill="#25a965" transform="translate(12 35)"/><use href="#prefix__d" fill="#2ed37e" transform="rotate(-5 749.372 -82.019)"/><use href="#prefix__e" fill="#25a965" transform="rotate(-5 400.816 17.5)"/><use href="#prefix__f" fill="#2ed37e" transform="translate(-15 30)"/><use href="#prefix__g" fill="#2ed37e" transform="rotate(-10 564.003 135.725)"/><use href="#prefix__h" fill="#25a965" transform="rotate(-5 507.835 194.278)"/><use href="#prefix__i" fill="#00d674" transform="rotate(-5 1914.801 -1809.56)"/><use href="#prefix__j" fill="#2ed37e" transform="rotate(10 -127.95 512.207) scale(.4)"/><use href="#prefix__k" fill="#25a965" transform="matrix(.34641 -.2 .2 .34641 77 69)"/><use href="#prefix__l" fill="#2ed37e" transform="rotate(-5 204.278 -736.872) scale(.4)"/><use href="#prefix__m" fill="#25a965" transform="rotate(-5 396.46 -671.113) scale(.4)"/><use href="#prefix__n" fill="#2ed37e" transform="matrix(.34641 -.2 .2 .34641 75 92)"/><use href="#prefix__o" fill="#25a965" transform="rotate(-5 201.778 -679.613) scale(.4)"/><use href="#prefix__p" fill="#2ed37e" transform="rotate(5 292.893 664.161) scale(.4)"/><use href="#prefix__j" fill="#25a965" transform="rotate(-5 107.74 -3781.621) scale(.4)"/><use href="#prefix__q" fill="#2ed37e" transform="rotate(-5 311.297 -560.094) scale(.4)"/><use href="#prefix__r" fill="#fdc502"/><use href="#prefix__s" fill="#fdc502"/><use href="#prefix__t" fill="#19baea" transform="rotate(5 -437.998 3633.343)"/></g></defs><g filter="drop-shadow(3px 7px 0 #25a965)"><use href="#prefix__u" stroke="#fff" stroke-width="30"/><use href="#prefix__u" stroke="#fff" stroke-width="15"/><use href="#prefix__u"/></g></svg>